<svg width="1024" height="1024" viewBox="0 0 1024 1024" fill="none" xmlns="http://www.w3.org/2000/svg">
<g clip-path="url(#clip0_3119_29096)">
<path fill-rule="evenodd" clip-rule="evenodd" d="M498.934 239.419C549.088 236.076 597.908 252.887 635.983 285.177C674.473 317.444 698.458 363.762 702.603 413.814C708.638 486.11 670.698 559.97 634.158 620.085C601.703 673.48 561.613 732.565 521.343 780.315C519.143 782.415 516.308 783.924 513.263 784.304C509.388 784.789 505.752 783.245 502.797 780.825C497.039 776.105 492.328 768.49 487.748 762.61C478.438 750.665 469.136 738.815 460.233 726.545C407.476 653.855 329.1 539.364 320.888 449.648C316.18 398.207 330.161 348.952 363.437 309.063C397.721 267.967 444.661 244.434 497.604 239.57C498.047 239.519 498.491 239.469 498.934 239.419Z" fill="#359EFA"/>
<path d="M497.041 309.825C567.569 301.867 631.219 352.387 639.178 422.65C647.138 492.911 596.394 556.29 525.848 564.188C455.354 572.08 391.776 521.568 383.822 451.351C375.868 381.132 426.548 317.779 497.041 309.825Z" fill="white"/>
<path d="M477.999 426.124C477.084 442.634 487.258 454.924 502.801 458.979C513.571 461.779 524.003 461.025 535.658 458.45L535.758 489.885C520.592 492.685 506.749 492.891 492.369 489.375C454.381 480.111 434.034 444.73 444.924 407.919C457.056 366.897 506.61 354.979 542.202 370.628C566.755 381.42 581.741 404.266 581.821 430.628L582 488.964H547.045L546.905 432.851C546.886 425.291 545.205 417.359 541.257 410.994C534.306 399.771 521.746 395.041 508.877 395.658C491.713 396.491 478.964 408.81 478.009 426.124H477.999Z" fill="#359EFA"/>
</g>
<defs>
<clipPath id="clip0_3119_29096">
<rect width="1024" height="1024" fill="white"/>
</clipPath>
</defs>
</svg>
