<svg width="1024" height="1024" viewBox="0 0 1024 1024" fill="none" xmlns="http://www.w3.org/2000/svg">
<g clip-path="url(#clip0_3205_29520)">
<path fill-rule="evenodd" clip-rule="evenodd" d="M498.933 239.419C549.087 236.076 597.908 252.887 635.983 285.177C674.473 317.444 698.457 363.761 702.602 413.813C708.637 486.109 670.698 559.97 634.158 620.085C601.703 673.48 561.612 732.564 521.342 780.314C519.142 782.414 516.307 783.924 513.262 784.304C509.387 784.789 505.752 783.244 502.798 780.824C497.039 776.104 492.327 768.489 487.747 762.609C478.437 750.664 469.136 738.814 460.233 726.545C407.476 653.855 329.1 539.365 320.888 449.648C316.18 398.207 330.161 348.952 363.437 309.062C397.721 267.966 444.661 244.433 497.604 239.569C498.047 239.518 498.49 239.469 498.933 239.419Z" fill="#1A4E7C"/>
<path d="M497.041 309.825C567.569 301.867 631.219 352.387 639.178 422.65C647.138 492.911 596.394 556.29 525.848 564.188C455.354 572.08 391.776 521.568 383.822 451.351C375.868 381.132 426.548 317.779 497.041 309.825Z" fill="white"/>
<path d="M477.999 426.124C477.084 442.634 487.258 454.924 502.801 458.979C513.571 461.779 524.003 461.025 535.658 458.45L535.758 489.885C520.592 492.685 506.749 492.891 492.369 489.375C454.381 480.111 434.034 444.73 444.924 407.919C457.056 366.897 506.61 354.979 542.202 370.628C566.755 381.42 581.741 404.266 581.821 430.628L582 488.964H547.045L546.905 432.851C546.886 425.291 545.205 417.359 541.257 410.994C534.306 399.771 521.746 395.041 508.877 395.658C491.713 396.491 478.964 408.81 478.009 426.124H477.999Z" fill="#359EFA"/>
</g>
<defs>
<clipPath id="clip0_3205_29520">
<rect width="1024" height="1024" fill="white"/>
</clipPath>
</defs>
</svg>
