<svg width="1024" height="1024" viewBox="0 0 1024 1024" fill="none" xmlns="http://www.w3.org/2000/svg">
<g clip-path="url(#clip0_3119_29103)">
<path fill-rule="evenodd" clip-rule="evenodd" d="M498.934 239.419C549.088 236.076 597.908 252.888 635.983 285.178C674.473 317.445 698.458 363.762 702.603 413.814C708.638 486.11 670.698 559.97 634.158 620.085C601.703 673.48 561.613 732.565 521.343 780.315C519.143 782.415 516.308 783.925 513.263 784.305C509.388 784.79 505.753 783.245 502.798 780.825C497.039 776.105 492.328 768.49 487.748 762.61C478.438 750.665 469.137 738.815 460.234 726.545C407.476 653.855 329.1 539.365 320.888 449.648C316.18 398.207 330.162 348.952 363.438 309.063C397.722 267.967 444.662 244.434 497.605 239.57C498.048 239.519 498.491 239.469 498.934 239.419Z" fill="#359EFA"/>
<path d="M497.041 309.825C567.569 301.867 631.219 352.387 639.178 422.65C647.138 492.911 596.394 556.29 525.848 564.188C455.354 572.08 391.776 521.568 383.822 451.351C375.868 381.132 426.548 317.779 497.041 309.825Z" fill="white"/>
<path d="M559.087 394.638L497.743 369.517C488.955 365.918 478.912 370.124 475.313 378.913L459.29 418.041C455.691 426.829 459.898 436.871 468.686 440.47L530.031 465.592C538.819 469.191 548.861 464.984 552.46 456.196L568.484 417.068C572.083 408.279 567.876 398.237 559.087 394.638Z" fill="url(#paint0_linear_3119_29103)"/>
<path d="M552.504 419.425H535.301H531.702C523.171 419.425 517.434 417.918 517.201 409.7V408.383C517.201 397.907 508.674 389.412 498.157 389.412H468.044C457.527 389.412 449 397.907 449 408.387V468.133C449 478.61 457.527 487.104 468.044 487.104H552.504C563.021 487.104 571.549 478.61 571.549 468.133V438.401C571.549 427.924 563.021 419.43 552.504 419.43V419.425Z" fill="#359EFA"/>
</g>
<defs>
<linearGradient id="paint0_linear_3119_29103" x1="528.415" y1="382.077" x2="499.358" y2="453.031" gradientUnits="userSpaceOnUse">
<stop/>
<stop offset="0.230769" stop-color="#365168"/>
<stop offset="0.552885" stop-color="#84C6FF"/>
</linearGradient>
<clipPath id="clip0_3119_29103">
<rect width="1024" height="1024" fill="white"/>
</clipPath>
</defs>
</svg>
